<svg width="21" height="20" viewBox="0 0 21 20" fill="none" xmlns="http://www.w3.org/2000/svg">
<path fill-rule="evenodd" clip-rule="evenodd" d="M3.40275 9.62212C4.51875 10.0051 5.40775 10.9391 5.77975 12.1231L5.81975 12.2431C6.24575 13.4991 6.07275 14.8511 5.35875 15.8651C5.22875 16.0491 5.25775 16.2691 5.39475 16.3731L7.46675 17.9471C7.53975 18.0021 7.61075 18.0021 7.65475 17.9971C7.70475 17.9891 7.77775 17.9621 7.83675 17.8781L8.06775 17.5501C8.75675 16.5731 9.86675 15.9701 11.0387 15.9361C12.3547 15.9091 13.5367 16.5121 14.2727 17.5751L14.3907 17.7461C14.4497 17.8301 14.5217 17.8581 14.5727 17.8661C14.6167 17.8751 14.6887 17.8721 14.7607 17.8161L16.8217 16.2611C16.9657 16.1531 16.9977 15.9221 16.8907 15.7671L16.6307 15.3921C15.9607 14.4241 15.7617 13.1681 16.0987 12.0331C16.4647 10.7971 17.3957 9.81912 18.5907 9.41912L18.7917 9.35112C18.9527 9.29812 19.0397 9.09812 18.9827 8.91412L18.1957 6.39312C18.1587 6.27512 18.0827 6.22212 18.0407 6.20012C17.9807 6.16912 17.9157 6.16412 17.8537 6.18512L17.5137 6.29812C16.3507 6.68512 15.0677 6.47512 14.0827 5.73412L13.9747 5.65312C13.0387 4.94912 12.4817 3.81412 12.4857 2.61812L12.4877 2.33812C12.4877 2.20512 12.4247 2.12212 12.3867 2.08412C12.3507 2.04712 12.2897 2.00312 12.2037 2.00312L9.65675 2.00012C9.50075 2.00012 9.37375 2.14912 9.37275 2.33312L9.37175 2.57512C9.36675 3.79012 8.79775 4.94612 7.84975 5.66912L7.72075 5.76712C6.67775 6.56012 5.31775 6.78412 4.08575 6.36412C4.03875 6.34812 3.99475 6.35112 3.95275 6.37312C3.92075 6.38912 3.86275 6.43012 3.83475 6.52112L3.01775 9.11712C2.95875 9.30612 3.05575 9.50312 3.23875 9.56612L3.40275 9.62212ZM7.61375 20.0001C7.12775 20.0001 6.65575 19.8421 6.25775 19.5391L4.18575 17.9661C3.19575 17.2161 2.97675 15.7731 3.69675 14.7501C4.07075 14.2201 4.14775 13.5391 3.92775 12.8931L3.87275 12.7251C3.68975 12.1431 3.27175 11.6911 2.75475 11.5141H2.75375L2.59075 11.4571C1.37275 11.0401 0.722746 9.74912 1.10975 8.51712L1.92575 5.92212C2.11075 5.33512 2.50975 4.86112 3.04975 4.58812C3.57775 4.32212 4.17475 4.28112 4.73275 4.47212C5.33175 4.67612 5.99675 4.56512 6.50975 4.17512L6.63875 4.07712C7.09475 3.72912 7.36975 3.16412 7.37175 2.56712L7.37275 2.32612C7.37775 1.04212 8.40275 0.00012207 9.65575 0.00012207H9.65975L12.2067 0.00312207C12.8087 0.00412207 13.3767 0.242122 13.8047 0.673122C14.2477 1.11812 14.4897 1.71312 14.4877 2.34812L14.4857 2.62712C14.4837 3.19312 14.7427 3.72812 15.1797 4.05612L15.2867 4.13712C15.7457 4.48212 16.3437 4.58112 16.8807 4.40112L17.2197 4.28812C17.7967 4.09612 18.4107 4.14312 18.9517 4.42012C19.5067 4.70412 19.9167 5.19312 20.1047 5.79812L20.8917 8.31912C21.2717 9.53712 20.6137 10.8511 19.4267 11.2481L19.2257 11.3151C18.6497 11.5091 18.1967 11.9891 18.0157 12.6011C17.8497 13.1621 17.9457 13.7791 18.2747 14.2531L18.5347 14.6281C19.2487 15.6601 19.0207 17.1081 18.0267 17.8571L15.9657 19.4131C15.4707 19.7871 14.8637 19.9381 14.2547 19.8411C13.6407 19.7421 13.1047 19.4021 12.7457 18.8841L12.6277 18.7121C12.2777 18.2081 11.7177 17.9021 11.1307 17.9351C10.5427 17.9511 10.0347 18.2301 9.70275 18.7021L9.47175 19.0301C9.10975 19.5431 8.57275 19.8781 7.96175 19.9741C7.84475 19.9921 7.72875 20.0001 7.61375 20.0001ZM10.9999 8.50002C10.1729 8.50002 9.49995 9.17302 9.49995 10C9.49995 10.827 10.1729 11.5 10.9999 11.5C11.8269 11.5 12.4999 10.827 12.4999 10C12.4999 9.17302 11.8269 8.50002 10.9999 8.50002ZM10.9999 13.5C9.06995 13.5 7.49995 11.93 7.49995 10C7.49995 8.07002 9.06995 6.50002 10.9999 6.50002C12.9299 6.50002 14.4999 8.07002 14.4999 10C14.4999 11.93 12.9299 13.5 10.9999 13.5Z" fill="#616061"/>
</svg>
