<svg width="18" height="12" viewBox="0 0 18 12" fill="none" xmlns="http://www.w3.org/2000/svg">
<path fill-rule="evenodd" clip-rule="evenodd" d="M17.9923 0.962878C17.9902 0.890878 17.9692 0.822878 17.9503 0.753878C17.9353 0.695878 17.9283 0.636878 17.9033 0.583878C17.8803 0.531878 17.8413 0.489878 17.8073 0.441878C17.7653 0.380878 17.7273 0.319878 17.6733 0.269878C17.6643 0.260878 17.6603 0.248878 17.6503 0.240878C17.6143 0.209878 17.5703 0.198878 17.5313 0.173878C17.4713 0.134878 17.4123 0.0948779 17.3443 0.0688779C17.2773 0.0448779 17.2113 0.0388779 17.1423 0.0288779C17.0943 0.0218779 17.0513 -0.00012207 17.0003 -0.00012207H12.0003C11.4473 -0.00012207 11.0003 0.447878 11.0003 0.999878C11.0003 1.55188 11.4473 1.99988 12.0003 1.99988H14.8263L10.7903 6.70788L6.51425 4.14288C6.09125 3.88688 5.54725 3.98088 5.23125 4.35988L0.231251 10.3599C-0.121749 10.7839 -0.0647487 11.4149 0.359251 11.7679C0.547251 11.9239 0.773251 11.9999 0.999251 11.9999C1.28625 11.9999 1.57025 11.8779 1.76825 11.6399L6.22025 6.29788L10.4853 8.85788C10.9043 9.10888 11.4423 9.02088 11.7593 8.65088L16.0003 3.70288V5.99988C16.0003 6.55188 16.4473 6.99988 17.0003 6.99988C17.5533 6.99988 18.0003 6.55188 18.0003 5.99988V0.999878C18.0003 0.986878 17.9932 0.975878 17.9923 0.962878Z" fill="#616061"/>
</svg>
